<mxfile host="app.diagrams.net" modified="2023-12-12T21:26:53.692Z" agent="Mozilla/5.0 (Windows NT 10.0; Win64; x64) AppleWebKit/537.36 (KHTML, like Gecko) Chrome/119.0.0.0 Safari/537.36" etag="8JP4vJ2j0UgmKue-NDUl" version="22.1.8" type="device">
  <diagram name="Page-1" id="0GoTv7bOp16JD7FuGl-k">
    <mxGraphModel dx="2412" dy="1881" grid="1" gridSize="10" guides="1" tooltips="1" connect="1" arrows="1" fold="1" page="1" pageScale="1" pageWidth="850" pageHeight="1100" math="0" shadow="0">
      <root>
        <mxCell id="0" />
        <mxCell id="1" parent="0" />
        <mxCell id="KEg1J5PdYLPfWykJ1m-7-2" value="User" style="html=1;whiteSpace=wrap;" parent="1" vertex="1">
          <mxGeometry x="130" y="130" width="110" height="50" as="geometry" />
        </mxCell>
        <mxCell id="KEg1J5PdYLPfWykJ1m-7-3" value="Problems" style="html=1;whiteSpace=wrap;" parent="1" vertex="1">
          <mxGeometry x="450" y="130" width="110" height="50" as="geometry" />
        </mxCell>
        <mxCell id="KEg1J5PdYLPfWykJ1m-7-6" value="Solution" style="html=1;whiteSpace=wrap;" parent="1" vertex="1">
          <mxGeometry x="440" y="310" width="110" height="50" as="geometry" />
        </mxCell>
        <mxCell id="KEg1J5PdYLPfWykJ1m-7-7" value="Difficulty Level" style="html=1;whiteSpace=wrap;" parent="1" vertex="1">
          <mxGeometry x="890" y="130" width="110" height="50" as="geometry" />
        </mxCell>
        <mxCell id="KEg1J5PdYLPfWykJ1m-7-8" value="Submission" style="html=1;whiteSpace=wrap;" parent="1" vertex="1">
          <mxGeometry x="450" y="560" width="110" height="50" as="geometry" />
        </mxCell>
        <mxCell id="KEg1J5PdYLPfWykJ1m-7-9" value="Settings" style="html=1;whiteSpace=wrap;" parent="1" vertex="1">
          <mxGeometry x="140" y="320" width="110" height="50" as="geometry" />
        </mxCell>
        <mxCell id="KEg1J5PdYLPfWykJ1m-7-22" value="1" style="endArrow=open;html=1;endSize=12;startArrow=diamondThin;startSize=14;startFill=1;edgeStyle=orthogonalEdgeStyle;align=left;verticalAlign=bottom;rounded=0;entryX=0;entryY=0.5;entryDx=0;entryDy=0;" parent="1" target="KEg1J5PdYLPfWykJ1m-7-7" edge="1">
          <mxGeometry x="-1" y="3" relative="1" as="geometry">
            <mxPoint x="560" y="154.5" as="sourcePoint" />
            <mxPoint x="720" y="154.5" as="targetPoint" />
          </mxGeometry>
        </mxCell>
        <mxCell id="KEg1J5PdYLPfWykJ1m-7-23" value="1" style="endArrow=open;html=1;endSize=12;startArrow=diamondThin;startSize=14;startFill=1;edgeStyle=orthogonalEdgeStyle;align=left;verticalAlign=bottom;rounded=0;exitX=0.25;exitY=1;exitDx=0;exitDy=0;entryX=0.408;entryY=-0.048;entryDx=0;entryDy=0;entryPerimeter=0;" parent="1" target="KEg1J5PdYLPfWykJ1m-7-8" edge="1">
          <mxGeometry x="-1" y="3" relative="1" as="geometry">
            <mxPoint x="494.5" y="360" as="sourcePoint" />
            <mxPoint x="500" y="540" as="targetPoint" />
            <Array as="points" />
          </mxGeometry>
        </mxCell>
        <mxCell id="KEg1J5PdYLPfWykJ1m-7-24" value="1" style="endArrow=open;html=1;endSize=12;startArrow=diamondThin;startSize=14;startFill=1;edgeStyle=orthogonalEdgeStyle;align=left;verticalAlign=bottom;rounded=0;entryX=0.549;entryY=-0.155;entryDx=0;entryDy=0;entryPerimeter=0;" parent="1" target="KEg1J5PdYLPfWykJ1m-7-9" edge="1">
          <mxGeometry x="-1" y="3" relative="1" as="geometry">
            <mxPoint x="200" y="190" as="sourcePoint" />
            <mxPoint x="210" y="340" as="targetPoint" />
          </mxGeometry>
        </mxCell>
        <mxCell id="KEg1J5PdYLPfWykJ1m-7-25" value="Language" style="html=1;whiteSpace=wrap;" parent="1" vertex="1">
          <mxGeometry x="730" y="310" width="110" height="50" as="geometry" />
        </mxCell>
        <mxCell id="KEg1J5PdYLPfWykJ1m-7-26" value="1" style="endArrow=open;html=1;endSize=12;startArrow=diamondThin;startSize=14;startFill=1;edgeStyle=orthogonalEdgeStyle;align=left;verticalAlign=bottom;rounded=0;exitX=0.25;exitY=1;exitDx=0;exitDy=0;entryX=0.595;entryY=-0.141;entryDx=0;entryDy=0;entryPerimeter=0;" parent="1" target="KEg1J5PdYLPfWykJ1m-7-6" edge="1">
          <mxGeometry x="-1" y="3" relative="1" as="geometry">
            <mxPoint x="504.5" y="180" as="sourcePoint" />
            <mxPoint x="504.5" y="420" as="targetPoint" />
          </mxGeometry>
        </mxCell>
        <mxCell id="KEg1J5PdYLPfWykJ1m-7-28" value="1" style="endArrow=open;html=1;endSize=12;startArrow=diamondThin;startSize=14;startFill=1;edgeStyle=orthogonalEdgeStyle;align=left;verticalAlign=bottom;rounded=0;entryX=0;entryY=0.5;entryDx=0;entryDy=0;" parent="1" source="KEg1J5PdYLPfWykJ1m-7-6" target="KEg1J5PdYLPfWykJ1m-7-25" edge="1">
          <mxGeometry x="-1" y="3" relative="1" as="geometry">
            <mxPoint x="560" y="330" as="sourcePoint" />
            <mxPoint x="560.5" y="453" as="targetPoint" />
          </mxGeometry>
        </mxCell>
        <mxCell id="KEg1J5PdYLPfWykJ1m-7-36" value="1" style="endArrow=open;html=1;endSize=12;startArrow=diamondThin;startSize=14;startFill=1;edgeStyle=orthogonalEdgeStyle;align=left;verticalAlign=bottom;rounded=0;entryX=0;entryY=0.5;entryDx=0;entryDy=0;exitX=1;exitY=0.5;exitDx=0;exitDy=0;" parent="1" target="KEg1J5PdYLPfWykJ1m-7-3" edge="1" source="KEg1J5PdYLPfWykJ1m-7-2">
          <mxGeometry x="-1" y="3" relative="1" as="geometry">
            <mxPoint x="250" y="154.5" as="sourcePoint" />
            <mxPoint x="380" y="154.5" as="targetPoint" />
            <Array as="points" />
          </mxGeometry>
        </mxCell>
        <mxCell id="K5xA9VwYmmc0hjVH-shb-21" value="solve multiple problems" style="edgeLabel;html=1;align=center;verticalAlign=middle;resizable=0;points=[];" vertex="1" connectable="0" parent="KEg1J5PdYLPfWykJ1m-7-36">
          <mxGeometry x="-0.4514" y="8" relative="1" as="geometry">
            <mxPoint x="42" as="offset" />
          </mxGeometry>
        </mxCell>
        <mxCell id="K5xA9VwYmmc0hjVH-shb-5" value="Profile" style="html=1;whiteSpace=wrap;" vertex="1" parent="1">
          <mxGeometry x="130" y="-60" width="110" height="50" as="geometry" />
        </mxCell>
        <mxCell id="K5xA9VwYmmc0hjVH-shb-9" value="Notifications" style="html=1;whiteSpace=wrap;" vertex="1" parent="1">
          <mxGeometry x="-130" y="130" width="110" height="50" as="geometry" />
        </mxCell>
        <mxCell id="K5xA9VwYmmc0hjVH-shb-11" value="1" style="endArrow=open;html=1;endSize=12;startArrow=diamondThin;startSize=14;startFill=1;edgeStyle=orthogonalEdgeStyle;align=left;verticalAlign=bottom;rounded=0;entryX=1;entryY=0.75;entryDx=0;entryDy=0;exitX=0;exitY=0.75;exitDx=0;exitDy=0;" edge="1" parent="1" source="KEg1J5PdYLPfWykJ1m-7-2" target="K5xA9VwYmmc0hjVH-shb-9">
          <mxGeometry x="-1" y="3" relative="1" as="geometry">
            <mxPoint x="90" y="168" as="sourcePoint" />
            <mxPoint x="210" y="322" as="targetPoint" />
            <Array as="points" />
          </mxGeometry>
        </mxCell>
        <mxCell id="K5xA9VwYmmc0hjVH-shb-12" value="Description" style="html=1;whiteSpace=wrap;" vertex="1" parent="1">
          <mxGeometry x="390" y="-60" width="110" height="50" as="geometry" />
        </mxCell>
        <mxCell id="K5xA9VwYmmc0hjVH-shb-16" value="Solution Article" style="html=1;whiteSpace=wrap;" vertex="1" parent="1">
          <mxGeometry x="600" y="-30" width="110" height="50" as="geometry" />
        </mxCell>
        <mxCell id="K5xA9VwYmmc0hjVH-shb-22" value="Easy/Medium/Hard" style="text;html=1;align=center;verticalAlign=middle;resizable=0;points=[];autosize=1;strokeColor=none;fillColor=none;" vertex="1" parent="1">
          <mxGeometry x="570" y="120" width="130" height="30" as="geometry" />
        </mxCell>
        <mxCell id="K5xA9VwYmmc0hjVH-shb-23" value="will have solution for problem" style="text;html=1;align=center;verticalAlign=middle;resizable=0;points=[];autosize=1;strokeColor=none;fillColor=none;" vertex="1" parent="1">
          <mxGeometry x="310" y="230" width="180" height="30" as="geometry" />
        </mxCell>
        <mxCell id="K5xA9VwYmmc0hjVH-shb-24" value="solution can be submitted" style="text;html=1;align=center;verticalAlign=middle;resizable=0;points=[];autosize=1;strokeColor=none;fillColor=none;" vertex="1" parent="1">
          <mxGeometry x="490" y="460" width="160" height="30" as="geometry" />
        </mxCell>
        <mxCell id="K5xA9VwYmmc0hjVH-shb-25" value="" style="edgeStyle=none;orthogonalLoop=1;jettySize=auto;html=1;rounded=0;entryX=0;entryY=0.5;entryDx=0;entryDy=0;exitX=0.25;exitY=0;exitDx=0;exitDy=0;" edge="1" parent="1" source="KEg1J5PdYLPfWykJ1m-7-2" target="KEg1J5PdYLPfWykJ1m-7-8">
          <mxGeometry width="100" relative="1" as="geometry">
            <mxPoint x="-310" y="80" as="sourcePoint" />
            <mxPoint x="210" y="130" as="targetPoint" />
            <Array as="points">
              <mxPoint x="158" y="70" />
              <mxPoint x="10" y="70" />
              <mxPoint x="-150" y="70" />
              <mxPoint x="-150" y="580" />
            </Array>
          </mxGeometry>
        </mxCell>
        <mxCell id="K5xA9VwYmmc0hjVH-shb-26" value="can have many submissions" style="text;html=1;align=center;verticalAlign=middle;resizable=0;points=[];autosize=1;strokeColor=none;fillColor=none;" vertex="1" parent="1">
          <mxGeometry x="-45" y="548" width="170" height="30" as="geometry" />
        </mxCell>
        <mxCell id="K5xA9VwYmmc0hjVH-shb-27" value="" style="edgeStyle=none;orthogonalLoop=1;jettySize=auto;html=1;rounded=0;entryX=0.661;entryY=1.067;entryDx=0;entryDy=0;entryPerimeter=0;exitX=0.68;exitY=0.019;exitDx=0;exitDy=0;exitPerimeter=0;" edge="1" parent="1">
          <mxGeometry width="100" relative="1" as="geometry">
            <mxPoint x="186.0400000000002" y="127.60000000000005" as="sourcePoint" />
            <mxPoint x="183.95000000000005" y="-10.00000000000009" as="targetPoint" />
            <Array as="points" />
          </mxGeometry>
        </mxCell>
        <mxCell id="K5xA9VwYmmc0hjVH-shb-28" value="" style="edgeStyle=none;orthogonalLoop=1;jettySize=auto;html=1;rounded=0;exitX=0.68;exitY=0.019;exitDx=0;exitDy=0;exitPerimeter=0;" edge="1" parent="1">
          <mxGeometry width="100" relative="1" as="geometry">
            <mxPoint x="472.0900000000002" y="127.60000000000005" as="sourcePoint" />
            <mxPoint x="472" y="-10" as="targetPoint" />
            <Array as="points" />
          </mxGeometry>
        </mxCell>
        <mxCell id="K5xA9VwYmmc0hjVH-shb-29" value="" style="edgeStyle=none;orthogonalLoop=1;jettySize=auto;html=1;rounded=0;exitX=0.68;exitY=0.019;exitDx=0;exitDy=0;exitPerimeter=0;" edge="1" parent="1">
          <mxGeometry width="100" relative="1" as="geometry">
            <mxPoint x="530.0900000000001" y="130.00000000000006" as="sourcePoint" />
            <mxPoint x="600" y="-10" as="targetPoint" />
            <Array as="points">
              <mxPoint x="530" y="-10" />
            </Array>
          </mxGeometry>
        </mxCell>
        <mxCell id="K5xA9VwYmmc0hjVH-shb-30" value="Text" style="text;html=1;align=center;verticalAlign=middle;resizable=0;points=[];autosize=1;strokeColor=none;fillColor=none;" vertex="1" parent="1">
          <mxGeometry x="1250" y="230" width="50" height="30" as="geometry" />
        </mxCell>
        <mxCell id="K5xA9VwYmmc0hjVH-shb-32" value="Status" style="html=1;whiteSpace=wrap;" vertex="1" parent="1">
          <mxGeometry x="990" y="330" width="110" height="50" as="geometry" />
        </mxCell>
        <mxCell id="K5xA9VwYmmc0hjVH-shb-33" value="" style="edgeStyle=none;orthogonalLoop=1;jettySize=auto;html=1;rounded=0;exitX=0.864;exitY=0.061;exitDx=0;exitDy=0;exitPerimeter=0;entryX=0.455;entryY=-0.163;entryDx=0;entryDy=0;entryPerimeter=0;" edge="1" parent="1" source="KEg1J5PdYLPfWykJ1m-7-3" target="K5xA9VwYmmc0hjVH-shb-32">
          <mxGeometry width="100" relative="1" as="geometry">
            <mxPoint x="545" y="120" as="sourcePoint" />
            <mxPoint x="781" y="72" as="targetPoint" />
            <Array as="points">
              <mxPoint x="545" y="70" />
              <mxPoint x="650" y="70" />
              <mxPoint x="1040" y="70" />
            </Array>
          </mxGeometry>
        </mxCell>
        <mxCell id="K5xA9VwYmmc0hjVH-shb-34" value="Status whether problem is solved or not&amp;nbsp;" style="text;html=1;align=center;verticalAlign=middle;resizable=0;points=[];autosize=1;strokeColor=none;fillColor=none;" vertex="1" parent="1">
          <mxGeometry x="620" y="40" width="240" height="30" as="geometry" />
        </mxCell>
        <mxCell id="K5xA9VwYmmc0hjVH-shb-48" value="" style="edgeStyle=none;orthogonalLoop=1;jettySize=auto;html=1;rounded=0;entryX=0.319;entryY=1.053;entryDx=0;entryDy=0;entryPerimeter=0;" edge="1" parent="1" target="K5xA9VwYmmc0hjVH-shb-32">
          <mxGeometry width="100" relative="1" as="geometry">
            <mxPoint x="560" y="590" as="sourcePoint" />
            <mxPoint x="660" y="590" as="targetPoint" />
            <Array as="points">
              <mxPoint x="1025" y="590" />
            </Array>
          </mxGeometry>
        </mxCell>
        <mxCell id="K5xA9VwYmmc0hjVH-shb-50" value="Submission is passing all the testcases without any errors&amp;nbsp;" style="text;html=1;align=center;verticalAlign=middle;resizable=0;points=[];autosize=1;strokeColor=none;fillColor=none;" vertex="1" parent="1">
          <mxGeometry x="610" y="548" width="330" height="30" as="geometry" />
        </mxCell>
      </root>
    </mxGraphModel>
  </diagram>
</mxfile>
